# AST/ASF file generated using VICON BodyLanguage
# -----------------------------------------------
:version 1.10
:name VICON
:units
  mass 1.0
  length 0.45
  angle deg
:documentation
   .ast/.asf automatically generated from VICON data using
   VICON BodyBuilder and BodyLanguage model FoxedUp or BRILLIANT.MOD
:root
   order TX TY TZ RX RY RZ
   axis XYZ
   position 0 0 0  
   orientation 0 0 0 
:bonedata
  begin
     id 1 
     name lhipjoint
     direction 0.611804 -0.747784 0.257906 
     length 2.29243 
     axis 0 0 0  XYZ
  end
  begin
     id 2 
     name lfemur
     direction 0.34202 -0.939693 0  
     length 7.31159  
     axis 0 0 20  XYZ
    dof rx ry rz
    limits (-160.0 20.0)
           (-70.0 70.0)
           (-60.0 70.0)
  end
  begin
     id 3 
     name ltibia
     direction 0.34202 -0.939693 0   
     length 7.33391   
     axis 0 0 20   XYZ
    dof rx
    limits (-10.0 170.0)
  end
  begin
     id 4 
     name lfoot
     direction 0.122263 -0.335914 0.933924   
     length 1.76083   
     axis -90 7.62852e-016 20   XYZ
    dof rx rz
    limits (-45.0 90.0)
           (-70.0 20.0)
  end
  begin
     id 5 
     name ltoes
     direction 1.53533e-011 -4.2177e-011 1   
     length 0.879206   
     axis -90 7.62852e-016 20   XYZ
    dof rx
    limits (-90.0 20.0)
  end
  begin
     id 6 
     name rhipjoint
     direction -0.646469 -0.721248 0.248754   
     length 2.37677  
     axis 0 0 0  XYZ 
  end
  begin
     id 7 
     name rfemur
     direction -0.34202 -0.939693 0   
     length 7.18623   
     axis 0 0 -20   XYZ
    dof rx ry rz
    limits (-160.0 20.0)
           (-70.0 70.0)
           (-70.0 60.0)
  end
  begin
     id 8 
     name rtibia
     direction -0.34202 -0.939693 0   
     length 7.36567   
     axis 0 0 -20   XYZ
    dof rx
    limits (-10.0 170.0)
 end
 begin
     id 9 
     name rfoot
     direction -0.126681 -0.348054 0.928876   
     length 1.71902  
     axis -90 -7.62852e-016 -20   XYZ
    dof rx rz
    limits (-45.0 90.0)
           (-20.0 70.0)
  end
  begin
     id 10 
     name rtoes
     direction -1.53551e-011 -4.21898e-011 1   
     length 0.857792   
     axis -90 -7.62852e-016 -20   XYZ
    dof rx
    limits (-90.0 20.0)
  end
  begin
     id 11 
     name lowerback
     direction 0.0106509 0.999778 0.0181844   
     length 2.07668   
     axis 0 0 0   XYZ
    dof rx ry rz
    limits (-20.0 45.0)
           (-30.0 30.0)
           (-30.0 30.0)
  end
  begin
     id 12 
     name upperback
     direction -0.00456018 0.999989 -0.000590935   
     length 2.08011   
     axis 0 0 0   XYZ
    dof rx ry rz
    limits (-20.0 45.0)
           (-30.0 30.0)
           (-30.0 30.0)
  end
  begin
     id 13 
     name thorax
     direction -0.00910382 0.999916 -0.00923765   
     length 2.07397   
     axis 0 0 0   XYZ
    dof rx ry rz
    limits (-20.0 45.0)
           (-30.0 30.0)
           (-30.0 30.0)
  end
  begin
     id 14 
     name lowerneck
     direction 0.00171967 0.99778 0.0665733   
     length 1.67556   
     axis 0 0 0   XYZ
    dof rx ry rz
    limits (-20.0 45.0)
           (-30.0 30.0)
           (-30.0 30.0)
  end
  begin
     id 15 
     name upperneck
     direction -0.0143166 0.991302 -0.130828   
     length 1.68462   
     axis 0 0 0   XYZ
    dof rx ry rz
    limits (-20.0 45.0)
           (-30.0 30.0)
           (-30.0 30.0)
  end
  begin
     id 16
     name head
     direction -0.00606378 0.998665 -0.0512995  
     length 1.69269  
     axis 0 0 0   XYZ
    dof rx ry rz
    limits (-20.0 45.0)
           (-30.0 30.0)
           (-30.0 30.0)
  end
  begin
     id 17 
     name lclavicle
     direction 0.9638 0.179341 0.197297  
     length 4.12888  
     axis 0 0 0   XYZ
    dof ry rz
    limits (-20.0 10.0)
           (0.0 20.0)
  end
  begin
     id 18 
     name lhumerus
     direction 1 -4.48972e-011 -2.47351e-027   
     length 5.01834   
     axis -180 -30 -90   XYZ
    dof rx ry rz
    limits (-60.0 90.0)
           (-90.0 90.0)
           (-90.0 90.0)
  end
  begin
     id 19
     name lradius
     direction 1 -4.48965e-011 1.51591e-026   
     length 3.4869   
     axis -180 -30 -90   XYZ
    dof rx
    limits (-10.0 170.0)
  end
  begin
     id 20
     name lwrist
     direction 1 -4.48957e-011 2.70032e-026   
     length 1.74345   
     axis -1.81515e-014 90 90   XYZ
    dof ry
    limits (-180.0 0.0)
 end
  begin
     id 21 
     name lhand
     direction 1 -4.48951e-011 5.40064e-026   
     length 0.76799   
     axis -3.44607e-014 90 90   XYZ
    dof rx rz
    limits (-90.0 90.0)
           (-45.0 45.0)
  end
  begin
     id 22 
     name lfingers
     direction 1 -4.48971e-011 1.08013e-025   
     length 0.619174   
     axis -6.89214e-014 90 90   XYZ
    dof rx
    limits (0.0 90.0)
  end
  begin
     id 23
     name lthumb
     direction 0.707107 -6.34931e-011 0.707107   
     length 0.889013   
     axis -90 45 2.85299e-015   XYZ
    dof rx rz
    limits (-45.0 45.0)
           (-45.0 45.0)
  end
  begin
     id 24 
     name rclavicle
     direction -0.961409 0.252588 0.109054   
     length 4.04305  
     axis 0 0 0   XYZ 
    dof ry rz
    limits (-10.0 20.0)
           (-20.0 0.0)
  end
  begin
     id 25 
     name rhumerus
     direction -1 -4.4897e-011 1.33872e-017  
     length 4.70164   
     axis -180 30 90   XYZ
    dof rx ry rz
    limits (-90.0 60.0)
           (-90.0 90.0)
           (-90.0 90.0)
  end
  begin
     id 26 
     name rradius
     direction -1 -4.48954e-011 1.83844e-026   
     length 3.49911   
     axis -180 30 90   XYZ
    dof rx
    limits (-10.0 170.0)
  end
  begin
     id 27 
     name rwrist
     direction -1 -4.49008e-011 2.70032e-026   
     length 1.74955   
     axis -1.81515e-014 -90 -90   XYZ
    dof ry
    limits (-180.0 0.0)
  end
  begin
     id 28
     name rhand
     direction -1 -4.48916e-011 5.40064e-026   
     length 0.739335   
     axis -3.44607e-014 -90 -90   XYZ
    dof rx rz
    limits (-90.0 90.0)
           (-45.0 45.0)
  end
  begin
     id 29
     name rfingers
     direction -1 -4.48987e-011 1.08013e-025   
     length 0.596071   
     axis -6.89214e-014 -90 -90   XYZ
    dof rx
    limits (0.0 90.0)
  end
  begin
     id 30
     name rthumb
     direction -0.707107 -6.34935e-011 0.707107   
     length 0.855843   
     axis -90 -45 -2.85299e-015   XYZ
    dof rx rz
    limits (-45.0 45.0)
           (-45.0 45.0)
  end
:hierarchy
  begin
    root lhipjoint rhipjoint lowerback
    lhipjoint lfemur
    lfemur ltibia
    ltibia lfoot
    lfoot ltoes
    rhipjoint rfemur
    rfemur rtibia
    rtibia rfoot
    rfoot rtoes
    lowerback upperback
    upperback thorax
    thorax lowerneck lclavicle rclavicle
    lowerneck upperneck
    upperneck head
    lclavicle lhumerus
    lhumerus lradius
    lradius lwrist
    lwrist lhand lthumb
    lhand lfingers
    rclavicle rhumerus
    rhumerus rradius
    rradius rwrist
    rwrist rhand rthumb
    rhand rfingers
  end

#!OML:ASF I:\salsa\salsa 7_09\Patient 1\Session 1\dancermale.ASF
:FULLY-SPECIFIED
:DEGREES
284
root 4.80314 17.5488 2.22582 192.124 86.4624 184.235
lowerback -6.42322 2.5511 1.23532
upperback -0.426683 3.30333 0.72579
thorax 3.18345 1.6633 0.356394
lowerneck -6.24017 -4.60971 -0.863424
upperneck 19.8181 -5.61216 -1.03557
head 7.07465 -2.67461 -0.611645
rclavicle 2.14439e-014 -5.96354e-015
rhumerus -9.56767 2.22544 -87.9889
rradius 72.0645
rwrist -22.0653
rhand -41.9785 -1.43495
rfingers 7.12502
rthumb -14.8745 -30.881
lclavicle 2.14439e-014 -5.96354e-015
lhumerus -18.9894 -11.0521 100.232
lradius 114.417
lwrist 49.9522
lhand -16.933 49.1319
lfingers 7.12502
lthumb 9.30003 -281.093
rfemur -18.6991 -4.88663 19.4111
rtibia 27.5584
rfoot -15.3265 -5.68991
rtoes -8.51742
lfemur -12.6374 -1.99076 -19.1678
ltibia 15.7179
lfoot -15.2863 6.95572
ltoes -3.32931
285
root 4.81324 17.5469 2.19376 186.32 86.7721 177.952
lowerback -6.53094 2.55231 0.739283
upperback -0.589093 3.34557 0.614276
thorax 3.05437 1.67872 0.522132
lowerneck -6.10711 -4.63611 -1.03479
upperneck 19.6179 -5.64897 -0.949013
head 6.99455 -2.70127 -0.55252
rclavicle 1.00138e-014 3.97569e-016
rhumerus -10.1765 2.76936 -87.5789
rradius 73.1245
rwrist -22.6342
rhand -42.0408 -1.77584
rfingers 7.12502
rthumb -14.9344 -31.2174
lclavicle 1.00138e-014 3.97569e-016
lhumerus -18.3702 -11.55 100.882
lradius 115.808
lwrist 48.3695
lhand -16.3406 48.5384
lfingers 7.12502
lthumb 9.87154 -281.713
rfemur -20.8455 -5.23902 18.9763
rtibia 30.3391
rfoot -15.5873 -5.69008
rtoes -10.5674
lfemur -12.7691 -1.83546 -19.733
ltibia 15.0749
lfoot -15.0418 6.77153
ltoes -2.67123
286
root 4.81408 17.5433 2.1532 185.612 87.072 176.829
lowerback -6.49244 2.56068 1.06836
upperback -0.697823 3.34303 0.341269
thorax 2.95578 1.68291 0.0529425
lowerneck -6.29806 -4.59872 -0.946256
upperneck 19.6516 -5.62274 -0.904008
head 7.0377 -2.68065 -0.556341
rclavicle 4.40805e-014 1.03368e-014
rhumerus -10.5224 3.39402 -87.5779
rradius 74.0479
rwrist -22.8578
rhand -42.2709 -2.22235
rfingers 7.12502
rthumb -15.1561 -31.6473
lclavicle 4.40805e-014 1.03368e-014
lhumerus -17.5484 -12.2235 100.866
lradius 117.12
lwrist 47.1296
lhand -15.8493 47.7195
lfingers 7.12502
lthumb 10.3456 -282.555
rfemur -22.8611 -5.59371 18.9702
rtibia 32.8483
rfoot -15.6623 -5.422
rtoes -12.8614
lfemur -12.944 -1.51039 -19.9647
ltibia 14.654
lfoot -14.9745 6.52402
ltoes -1.96533
287
root 4.81918 17.5373 2.12581 187.849 87.2889 178.71
lowerback -6.31989 2.55168 1.41325
upperback -0.895975 3.31895 0.14945
thorax 2.6857 1.67531 -0.352639
lowerneck -6.37187 -4.56349 -0.79858
upperneck 19.7339 -5.56938 -1.03335
head 7.06864 -2.65504 -0.620907
rclavicle -3.62037e-014 5.56597e-015
rhumerus -10.9947 4.04497 -87.5582
rradius 74.9481
rwrist -22.8315
rhand -42.3998 -2.77152
rfingers 7.12502
rthumb -15.2803 -32.1871
lclavicle -3.62037e-014 5.56597e-015
lhumerus -16.7934 -13.0376 100.653
lradius 118.606
lwrist 45.9658
lhand -15.638 47.7614
lfingers 7.12502
lthumb 10.5494 -282.523
rfemur -24.5 -5.74322 19.2036
rtibia 34.6893
rfoot -15.7962 -5.20801
rtoes -14.2298
lfemur -13.1353 -1.14655 -19.9562
ltibia 14.3723
lfoot -15.0515 6.30689
ltoes -1.28675
288
root 4.83612 17.5334 2.11252 188.969 87.3526 179.559
lowerback -6.49977 2.48078 0.741447
upperback -0.907126 3.25796 0.63346
thorax 2.70782 1.63772 0.521399
lowerneck -6.17979 -4.60295 -1.21504
upperneck 19.444 -5.48543 -1.49487
head 6.94058 -2.68724 -0.684594
rclavicle -4.33351e-014 -1.63003e-014
rhumerus -11.2262 5.0553 -86.4379
rradius 75.8289
rwrist -23.0863
rhand -42.2417 -2.85151
rfingers 7.12502
rthumb -15.128 -32.2786
lclavicle -4.33351e-014 -1.63003e-014
lhumerus -15.8278 -13.7958 101.315
lradius 120.112
lwrist 44.1351
lhand -15.4385 48.8533
lfingers 7.12502
lthumb 10.7418 -281.441
rfemur -25.5693 -5.77116 19.3898
rtibia 35.6512
rfoot -16.3338 -4.99093
rtoes -14.3644
lfemur -13.2693 -0.761217 -19.9454
ltibia 14.1879
lfoot -15.1956 5.98928
ltoes -0.689792
289
root 4.8645 17.5324 2.10334 186.377 87.3282 176.905
lowerback -6.21611 2.48981 0.575507
upperback -1.07506 3.28931 0.560102
thorax 2.37146 1.65332 0.522104
lowerneck -5.87935 -4.65559 -1.24777
upperneck 19.3347 -5.52917 -1.62431
head 6.84945 -2.71987 -0.713993
rclavicle 1.23246e-014 6.75868e-015
rhumerus -11.7072 5.39901 -86.0647
rradius 76.6209
rwrist -23.1981
rhand -41.9815 -2.70906
rfingers 7.12502
rthumb -14.8773 -32.1549
lclavicle 1.23246e-014 6.75868e-015
lhumerus -15.1992 -15.209 101.222
lradius 121.634
lwrist 42.0006
lhand -16.4959 49.7224
lfingers 7.12502
lthumb 9.72176 -280.522
rfemur -25.8658 -5.66717 19.3403
rtibia 35.51
rfoot -17.1976 -4.70647
rtoes -14.0833
lfemur -13.1248 -0.285345 -20.1185
ltibia 13.9944
lfoot -15.3477 5.47421
ltoes -0.227957
290
root 4.91162 17.5393 2.09082 185.204 87.2118 175.81
lowerback -6.14024 2.43362 0.388862
upperback -1.08527 3.22528 0.668576
thorax 2.3023 1.62016 0.728123
lowerneck -5.72413 -4.65858 -1.42279
upperneck 19.3676 -5.46004 -1.85986
head 6.83172 -2.71518 -0.75146
rclavicle -3.80176e-015 8.74653e-015
rhumerus -11.9827 6.0724 -85.4796
rradius 77.2546
rwrist -23.1886
rhand -42.1115 -3.08294
rfingers 7.12502
rthumb -15.0026 -32.5195
lclavicle -3.80176e-015 8.74653e-015
lhumerus -14.3398 -16.535 101.057
lradius 123.082
lwrist 40.2192
lhand -13.7305 50.3444
lfingers 7.12502
lthumb 12.389 -280.043
rfemur -25.4477 -5.27536 19.2891
rtibia 34.226
rfoot -17.9344 -4.4261
rtoes -13.185
lfemur -12.6754 -0.0198986 -20.2161
ltibia 13.6053
lfoot -15.409 5.06873
ltoes 0.232661
291
root 4.97445 17.5501 2.07653 192.082 87.0732 182.662
lowerback -6.46262 2.40692 0.759574
upperback -1.04291 3.15884 0.81923
thorax 2.53767 1.58975 0.687557
lowerneck -5.65456 -4.63295 -1.5711
upperneck 19.4107 -5.3646 -2.04955
head 6.83305 -2.69302 -0.779265
rclavicle 4.69629e-015 -7.15625e-015
rhumerus -12.1325 6.84182 -84.9731
rradius 77.8293
rwrist -23.1331
rhand -42.5192 -4.17721
rfingers 7.12502
rthumb -15.3953 -33.584
lclavicle 4.69629e-015 -7.15625e-015
lhumerus -13.3127 -17.9614 100.578
lradius 124.374
lwrist 39.1569
lhand -13.6757 50.011
lfingers 7.12502
lthumb 12.4418 -280.379
rfemur -24.7361 -4.31079 19.6764
rtibia 32.1802
rfoot -18.4075 -4.36588
rtoes -12.46
lfemur -12.2181 -0.0461142 -19.8251
ltibia 13.043
lfoot -15.403 4.99219
ltoes 0.548831
292
root 5.03736 17.557 2.07006 196.027 86.7723 186.73
lowerback -6.62456 2.3586 0.964864
upperback -0.96887 3.07325 0.978478
thorax 2.70673 1.54863 0.73919
lowerneck -5.64174 -4.62934 -1.69589
upperneck 19.4607 -5.2932 -2.28512
head 6.8446 -2.68485 -0.829024
rclavicle -6.26172e-015 1.98785e-015
rhumerus -12.3263 7.52499 -84.438
rradius 78.4016
rwrist -22.9939
rhand -42.8379 -5.34034
rfingers 7.12502
rthumb -15.7022 -34.7233
lclavicle -6.26172e-015 1.98785e-015
lhumerus -12.2343 -19.5494 100.016
lradius 125.539
lwrist 38.6346
lhand -15.1742 50.1156
lfingers 7.12502
lthumb 10.9968 -280.192
rfemur -23.5576 -2.89373 19.9676
rtibia 29.7022
rfoot -18.7143 -4.7616
rtoes -13.0517
lfemur -11.5823 -0.103714 -19.5029
ltibia 12.4454
lfoot -15.4094 4.79759
ltoes 0.659251
293
root 5.09965 17.56 2.07394 193.399 86.6376 184.287
lowerback -6.53269 2.35303 0.741051
upperback -0.98241 3.08236 1.01075
thorax 2.62794 1.55109 0.893178
lowerneck -5.6628 -4.65152 -1.8331
upperneck 19.6747 -5.26107 -2.43947
head 6.91787 -2.68792 -0.857366
rclavicle 4.96713e-014 5.1684e-015
rhumerus -12.6684 8.14006 -83.9367
rradius 78.9492
rwrist -22.964
rhand -43.1368 -6.06712
rfingers 7.12502
rthumb -15.9901 -35.4272
lclavicle 4.96713e-014 5.1684e-015
lhumerus -11.2531 -21.3326 99.33
lradius 126.546
lwrist 38.4521
lhand -15.99 51.2055
lfingers 7.12502
lthumb 10.2098 -279.062
rfemur -22.2236 -1.1483 19.8667
rtibia 27.1739
rfoot -18.8226 -5.39981
rtoes -14.9249
lfemur -10.8221 0.0232947 -19.5915
ltibia 11.8172
lfoot -15.4374 4.51079
ltoes 0.662833
294
root 5.17082 17.5573 2.07837 190.696 86.5963 181.621
lowerback -6.58852 2.41314 0.545096
upperback -1.10536 3.17948 0.990973
thorax 2.52197 1.59909 0.98947
lowerneck -5.54612 -4.68215 -2.04788
upperneck 19.8517 -5.2675 -2.40844
head 6.96275 -2.69879 -0.812392
rclavicle 3.40667e-014 1.63003e-014
rhumerus -13.1003 8.73153 -83.4465
rradius 79.5034
rwrist -23.125
rhand -43.3287 -6.78325
rfingers 7.12502
rthumb -16.1749 -36.1284
lclavicle 3.40667e-014 1.63003e-014
lhumerus -10.3523 -23.2239 98.5722
lradius 127.428
lwrist 38.4711
lhand -15.2974 52.0747
lfingers 7.12502
lthumb 10.8779 -278.227
rfemur -21.0358 0.542396 19.7456
rtibia 24.7317
rfoot -18.5993 -5.66951
rtoes -16.1381
lfemur -10.1848 0.156761 -19.75
ltibia 11.229
lfoot -15.5211 4.36584
ltoes 0.290077
295
root 5.24679 17.5487 2.08566 189.995 86.3185 180.887
lowerback -6.77072 2.44832 0.55669
upperback -1.26679 3.22978 0.948138
thorax 2.45955 1.6262 0.947366
lowerneck -5.36079 -4.73493 -2.14342
upperneck 19.9636 -5.32308 -2.38453
head 6.97014 -2.72534 -0.789884
rclavicle -2.67862e-014 -2.50469e-014
rhumerus -13.5613 9.10827 -83.0084
rradius 80.0712
rwrist -23.5688
rhand -43.2809 -7.63578
rfingers 7.12502
rthumb -16.1289 -36.9847
lclavicle -2.67862e-014 -2.50469e-014
lhumerus -9.26818 -25.263 97.6248
lradius 128.147
lwrist 38.675
lhand -14.9099 51.9062
lfingers 7.12502
lthumb 11.2516 -278.416
rfemur -19.8886 1.86811 19.7832
rtibia 22.5257
rfoot -18.097 -5.63769
rtoes -14.999
lfemur -9.73001 0.136485 -19.7291
ltibia 10.8211
lfoot -15.6511 4.24306
ltoes -0.643108
296
root 5.32967 17.537 2.09512 188.953 85.7892 179.871
lowerback -7.08374 2.42889 0.652812
upperback -1.31053 3.19757 0.84893
thorax 2.6 1.61131 0.80302
lowerneck -5.31812 -4.7942 -2.13265
upperneck 20.0587 -5.41 -2.32763
head 6.99459 -2.75907 -0.780236
rclavicle 4.6615e-014 2.10712e-014
rhumerus -13.8219 9.14699 -82.564
rradius 80.6272
rwrist -24.6935
rhand -43.1889 -8.29772
rfingers 7.12502
rthumb -16.0403 -37.6537
lclavicle 4.6615e-014 2.10712e-014
lhumerus -7.8906 -27.3856 96.4565
lradius 128.71
lwrist 38.9679
lhand -14.6808 51.3775
lfingers 7.12502
lthumb 11.4726 -278.956
rfemur -18.6544 2.57731 19.8232
rtibia 20.8465
rfoot -17.7226 -6.10177
rtoes -12.1764
lfemur -9.31684 0.0882702 -19.7148
ltibia 10.6115
lfoot -15.8653 3.99767
ltoes -2.29894
297
root 5.42195 17.5196 2.11054 185.43 85.0366 176.448
lowerback -7.61356 2.34102 0.503082
upperback -1.14606 3.08677 0.686398
thorax 3.0669 1.55254 0.738977
lowerneck -5.42295 -4.86515 -2.04308
upperneck 20.0129 -5.53633 -2.25415
head 6.99709 -2.80908 -0.783143
rclavicle 5.49143e-015 -1.15295e-014
rhumerus -13.8678 9.29114 -82.1461
rradius 80.9759
rwrist -24.8836
rhand -43.2742 -8.40136
rfingers 7.12502
rthumb -16.1224 -37.7507
lclavicle 5.49143e-015 -1.15295e-014
lhumerus -6.47099 -29.4081 95.3607
lradius 129.142
lwrist 39.1956
lhand -14.5602 50.9051
lfingers 7.12502
lthumb 11.5889 -279.435
rfemur -17.2411 3.06179 19.6113
rtibia 19.4762
rfoot -17.7369 -7.46923
rtoes -11.3363
lfemur -8.94452 0.0913479 -19.9335
ltibia 10.6784
lfoot -16.2794 3.58607
ltoes -4.43257
